<svg width="156" height="106" viewBox="0 0 156 106" fill="none" xmlns="http://www.w3.org/2000/svg">
<path d="M31.1709 102H27.4209L27.4444 99.0469H31.1709C32.0225 99.0469 32.7412 98.8516 33.3272 98.4609C33.9131 98.0625 34.3584 97.4766 34.6631 96.7031C34.9678 95.9219 35.1202 94.9727 35.1202 93.8555V93.0703C35.1202 92.2266 35.0342 91.4844 34.8623 90.8438C34.6905 90.1953 34.4366 89.6523 34.1006 89.2148C33.7647 88.7773 33.3467 88.4492 32.8467 88.2305C32.3545 88.0117 31.7881 87.9023 31.1475 87.9023H27.3506V84.9375H31.1475C32.3037 84.9375 33.3584 85.1328 34.3116 85.5234C35.2725 85.9141 36.1006 86.4727 36.7959 87.1992C37.4991 87.9258 38.042 88.7852 38.4248 89.7773C38.8077 90.7695 38.9991 91.875 38.9991 93.0938V93.8555C38.9991 95.0664 38.8077 96.1719 38.4248 97.1719C38.042 98.1641 37.4991 99.0234 36.7959 99.75C36.1006 100.469 35.2764 101.023 34.3233 101.414C33.3702 101.805 32.3194 102 31.1709 102ZM29.5889 84.9375V102H25.7686V84.9375H29.5889ZM46.8802 102.234C45.8723 102.234 44.97 102.074 44.1731 101.754C43.3763 101.434 42.7005 100.992 42.1458 100.43C41.5989 99.8594 41.1809 99.2031 40.8919 98.4609C40.6028 97.7188 40.4583 96.9258 40.4583 96.082V95.6367C40.4583 94.6914 40.5911 93.8203 40.8567 93.0234C41.1223 92.2266 41.5091 91.5352 42.0169 90.9492C42.5325 90.3555 43.1653 89.8984 43.9153 89.5781C44.6653 89.25 45.5208 89.0859 46.4817 89.0859C47.3802 89.0859 48.1809 89.2344 48.8841 89.5312C49.5872 89.8203 50.1809 90.2383 50.6653 90.7852C51.1497 91.3242 51.5169 91.9766 51.7669 92.7422C52.0247 93.5 52.1536 94.3516 52.1536 95.2969V96.7969H41.9348V94.4414H48.5677V94.1602C48.5677 93.7148 48.4856 93.3242 48.3216 92.9883C48.1653 92.6523 47.9309 92.3945 47.6184 92.2148C47.3138 92.0273 46.927 91.9336 46.4583 91.9336C46.013 91.9336 45.6419 92.0273 45.345 92.2148C45.0481 92.4023 44.8098 92.668 44.6302 93.0117C44.4583 93.3477 44.3333 93.7422 44.2552 94.1953C44.177 94.6406 44.138 95.1211 44.138 95.6367V96.082C44.138 96.5742 44.2044 97.0234 44.3372 97.4297C44.47 97.8359 44.6653 98.1836 44.9231 98.4727C45.1809 98.7617 45.4934 98.9883 45.8606 99.1523C46.2278 99.3164 46.6458 99.3984 47.1145 99.3984C47.6927 99.3984 48.2434 99.2891 48.7669 99.0703C49.2903 98.8438 49.7434 98.4922 50.1263 98.0156L51.8372 99.9727C51.5794 100.348 51.2161 100.711 50.7473 101.062C50.2864 101.406 49.7317 101.688 49.0833 101.906C48.4348 102.125 47.7005 102.234 46.8802 102.234ZM57.5503 84V102H53.8823V84H57.5503ZM63.8025 89.3203V102H60.1345V89.3203H63.8025ZM59.9119 86.0391C59.9119 85.5078 60.0994 85.0742 60.4744 84.7383C60.8494 84.3945 61.3416 84.2227 61.9509 84.2227C62.5603 84.2227 63.0525 84.3945 63.4275 84.7383C63.8103 85.0742 64.0017 85.5078 64.0017 86.0391C64.0017 86.5625 63.8103 86.9961 63.4275 87.3398C63.0525 87.6758 62.5603 87.8438 61.9509 87.8438C61.3416 87.8438 60.8494 87.6758 60.4744 87.3398C60.0994 86.9961 59.9119 86.5625 59.9119 86.0391ZM70.6406 99.4102L73.2891 89.3203H77.1328L72.9258 102H70.6172L70.6406 99.4102ZM68.9297 89.3203L71.5664 99.4219L71.5898 102H69.2812L65.0742 89.3203H68.9297ZM84.053 102.234C83.0452 102.234 82.1428 102.074 81.3459 101.754C80.5491 101.434 79.8733 100.992 79.3186 100.43C78.7717 99.8594 78.3537 99.2031 78.0647 98.4609C77.7756 97.7188 77.6311 96.9258 77.6311 96.082V95.6367C77.6311 94.6914 77.7639 93.8203 78.0295 93.0234C78.2952 92.2266 78.6819 91.5352 79.1897 90.9492C79.7053 90.3555 80.3381 89.8984 81.0881 89.5781C81.8381 89.25 82.6936 89.0859 83.6545 89.0859C84.553 89.0859 85.3537 89.2344 86.0569 89.5312C86.76 89.8203 87.3537 90.2383 87.8381 90.7852C88.3225 91.3242 88.6897 91.9766 88.9397 92.7422C89.1975 93.5 89.3264 94.3516 89.3264 95.2969V96.7969H79.1077V94.4414H85.7405V94.1602C85.7405 93.7148 85.6584 93.3242 85.4944 92.9883C85.3381 92.6523 85.1037 92.3945 84.7912 92.2148C84.4866 92.0273 84.0998 91.9336 83.6311 91.9336C83.1858 91.9336 82.8147 92.0273 82.5178 92.2148C82.2209 92.4023 81.9827 92.668 81.803 93.0117C81.6311 93.3477 81.5061 93.7422 81.428 94.1953C81.3498 94.6406 81.3108 95.1211 81.3108 95.6367V96.082C81.3108 96.5742 81.3772 97.0234 81.51 97.4297C81.6428 97.8359 81.8381 98.1836 82.0959 98.4727C82.3537 98.7617 82.6662 98.9883 83.0334 99.1523C83.4006 99.3164 83.8186 99.3984 84.2873 99.3984C84.8655 99.3984 85.4162 99.2891 85.9397 99.0703C86.4631 98.8438 86.9162 98.4922 87.2991 98.0156L89.01 99.9727C88.7522 100.348 88.3889 100.711 87.9202 101.062C87.4592 101.406 86.9045 101.688 86.2561 101.906C85.6077 102.125 84.8733 102.234 84.053 102.234ZM97.8755 94.6289H93.4927L93.4692 92.0742H97.0903C97.7309 92.0742 98.2505 91.9961 98.6489 91.8398C99.0552 91.6836 99.352 91.457 99.5395 91.1602C99.727 90.8555 99.8208 90.4805 99.8208 90.0352C99.8208 89.5273 99.727 89.1172 99.5395 88.8047C99.352 88.4922 99.0552 88.2656 98.6489 88.125C98.2505 87.9766 97.7348 87.9023 97.102 87.9023H94.8755V102H91.0552V84.9375H97.102C98.1255 84.9375 99.0395 85.0312 99.8442 85.2188C100.649 85.4062 101.332 85.6953 101.895 86.0859C102.465 86.4766 102.899 86.9648 103.196 87.5508C103.493 88.1367 103.641 88.8281 103.641 89.625C103.641 90.3203 103.485 90.9688 103.172 91.5703C102.868 92.1719 102.375 92.6602 101.696 93.0352C101.016 93.4102 100.106 93.6133 98.9653 93.6445L97.8755 94.6289ZM97.7231 102H92.52L93.9028 99.0469H97.7231C98.3091 99.0469 98.7856 98.9531 99.1528 98.7656C99.52 98.5781 99.7895 98.3242 99.9614 98.0039C100.133 97.6836 100.219 97.3242 100.219 96.9258C100.219 96.457 100.137 96.0508 99.9731 95.707C99.8169 95.3633 99.5669 95.0977 99.2231 94.9102C98.8872 94.7227 98.438 94.6289 97.8755 94.6289H94.4536L94.477 92.0742H98.6606L99.5512 93.082C100.637 93.0586 101.504 93.2344 102.153 93.6094C102.809 93.9766 103.282 94.4609 103.571 95.0625C103.86 95.6641 104.004 96.3008 104.004 96.9727C104.004 98.082 103.766 99.0117 103.29 99.7617C102.813 100.504 102.106 101.062 101.168 101.438C100.239 101.812 99.0903 102 97.7231 102ZM105.522 95.7891V95.543C105.522 94.6133 105.655 93.7578 105.921 92.9766C106.186 92.1875 106.577 91.5039 107.092 90.9258C107.608 90.3477 108.241 89.8984 108.991 89.5781C109.741 89.25 110.6 89.0859 111.569 89.0859C112.553 89.0859 113.421 89.25 114.171 89.5781C114.928 89.8984 115.565 90.3477 116.081 90.9258C116.596 91.5039 116.987 92.1875 117.253 92.9766C117.518 93.7578 117.651 94.6133 117.651 95.543V95.7891C117.651 96.7109 117.518 97.5664 117.253 98.3555C116.987 99.1367 116.596 99.8203 116.081 100.406C115.565 100.984 114.932 101.434 114.182 101.754C113.432 102.074 112.569 102.234 111.592 102.234C110.624 102.234 109.76 102.074 109.003 101.754C108.245 101.434 107.608 100.984 107.092 100.406C106.577 99.8203 106.186 99.1367 105.921 98.3555C105.655 97.5664 105.522 96.7109 105.522 95.7891ZM109.19 95.543V95.7891C109.19 96.2891 109.229 96.7578 109.307 97.1953C109.393 97.6328 109.53 98.0156 109.717 98.3438C109.905 98.6719 110.151 98.9297 110.456 99.1172C110.768 99.2969 111.147 99.3867 111.592 99.3867C112.038 99.3867 112.413 99.2969 112.717 99.1172C113.022 98.9297 113.268 98.6719 113.456 98.3438C113.643 98.0156 113.776 97.6328 113.854 97.1953C113.94 96.7578 113.983 96.2891 113.983 95.7891V95.543C113.983 95.0508 113.94 94.5898 113.854 94.1602C113.776 93.7227 113.643 93.3359 113.456 93C113.268 92.6641 113.018 92.4023 112.706 92.2148C112.401 92.0273 112.022 91.9336 111.569 91.9336C111.132 91.9336 110.76 92.0273 110.456 92.2148C110.151 92.4023 109.905 92.6641 109.717 93C109.53 93.3359 109.393 93.7227 109.307 94.1602C109.229 94.5898 109.19 95.0508 109.19 95.543ZM118.806 95.7891V95.543C118.806 94.6133 118.938 93.7578 119.204 92.9766C119.47 92.1875 119.86 91.5039 120.376 90.9258C120.892 90.3477 121.524 89.8984 122.274 89.5781C123.024 89.25 123.884 89.0859 124.853 89.0859C125.837 89.0859 126.704 89.25 127.454 89.5781C128.212 89.8984 128.849 90.3477 129.364 90.9258C129.88 91.5039 130.27 92.1875 130.536 92.9766C130.802 93.7578 130.935 94.6133 130.935 95.543V95.7891C130.935 96.7109 130.802 97.5664 130.536 98.3555C130.27 99.1367 129.88 99.8203 129.364 100.406C128.849 100.984 128.216 101.434 127.466 101.754C126.716 102.074 125.853 102.234 124.876 102.234C123.907 102.234 123.044 102.074 122.286 101.754C121.528 101.434 120.892 100.984 120.376 100.406C119.86 99.8203 119.47 99.1367 119.204 98.3555C118.938 97.5664 118.806 96.7109 118.806 95.7891ZM122.474 95.543V95.7891C122.474 96.2891 122.513 96.7578 122.591 97.1953C122.677 97.6328 122.813 98.0156 123.001 98.3438C123.188 98.6719 123.435 98.9297 123.739 99.1172C124.052 99.2969 124.431 99.3867 124.876 99.3867C125.321 99.3867 125.696 99.2969 126.001 99.1172C126.306 98.9297 126.552 98.6719 126.739 98.3438C126.927 98.0156 127.06 97.6328 127.138 97.1953C127.224 96.7578 127.267 96.2891 127.267 95.7891V95.543C127.267 95.0508 127.224 94.5898 127.138 94.1602C127.06 93.7227 126.927 93.3359 126.739 93C126.552 92.6641 126.302 92.4023 125.989 92.2148C125.685 92.0273 125.306 91.9336 124.853 91.9336C124.415 91.9336 124.044 92.0273 123.739 92.2148C123.435 92.4023 123.188 92.6641 123.001 93C122.813 93.3359 122.677 93.7227 122.591 94.1602C122.513 94.5898 122.474 95.0508 122.474 95.543Z" fill="#FFAC4B"/>
<g clip-path="url(#clip0_1_9)">
<path d="M83.1894 22.0263C82.9618 21.8311 82.8963 21.3832 82.4372 21.5443C82.4172 21.5514 82.3504 21.5014 82.3529 21.4853C82.4466 20.875 81.7344 20.9671 81.628 20.7029C81.4789 20.3332 81.2844 20.079 81.0034 19.8367C80.8359 19.6922 80.7848 19.3475 80.4441 19.5553C80.302 19.3076 80.1447 18.8438 80.0207 18.8526C79.6491 18.8787 79.4907 18.7468 79.4632 18.4359C79.4385 18.1582 79.3889 18.0078 79.0645 18.0923C79.0031 18.1083 78.8569 17.9933 78.8289 17.9116C78.6308 17.3329 78.3199 16.8886 77.6639 16.7797C77.5918 16.7678 77.5113 16.6647 77.4774 16.5856C77.1222 15.757 76.4993 15.2404 75.7332 14.7677C75.3861 14.5535 74.7611 14.2743 74.8073 13.6148C74.8092 13.5877 74.7671 13.5343 74.7421 13.5321C74.0755 13.4745 74.034 12.798 73.6802 12.4341C73.4287 12.1754 73.0868 12.0467 72.8724 11.7331C72.6366 11.3881 72.3269 11.0843 72.0108 10.8065C71.7756 10.5997 71.4546 10.4909 71.2179 10.2854C71.0464 10.1366 70.9519 9.89983 70.8201 9.70429C70.7459 9.59417 70.668 9.48635 70.5877 9.38059C70.4756 9.23299 70.3597 9.08827 70.2604 8.89693C70.265 8.85512 70.2548 8.85871 70.2446 8.86229C70.2088 8.7416 70.1731 8.62091 70.1504 8.45409C70.1537 8.41179 70.1438 8.41562 70.134 8.41946C70.0201 7.50288 70.0885 6.63549 70.7911 5.93366C72.4721 4.25465 74.1417 2.56407 75.839 0.901751C76.2455 0.503607 76.7792 0.314788 77.3736 0.322285C77.6128 0.325302 77.8531 0.241562 78.1011 0.154041C78.1585 0.110774 78.2077 0.110774 78.2936 0.149855C78.432 0.300541 78.5223 0.493424 78.6375 0.509731C79.1463 0.581722 79.4994 0.864131 79.8393 1.22086C80.457 1.86923 81.099 2.49489 81.7409 3.11968C82.4456 3.8056 83.1769 4.46474 83.8695 5.16251C85.0585 6.36057 86.2202 7.5858 87.4066 8.78653C87.8454 9.2306 88.3384 9.6211 88.777 10.0654C89.5613 10.8599 90.3092 11.6904 91.0982 12.48C91.8351 13.2174 92.6207 13.9059 93.3573 14.6436C94.1459 15.4335 94.8922 16.2653 95.675 17.0612C96.6994 18.1028 97.7426 19.126 98.7756 20.1591C99.9398 21.3234 101.094 22.4978 102.266 23.6536C103.603 24.9711 104.969 26.2593 106.297 27.5856C107.571 28.8584 108.812 30.1653 110.07 31.4541C111.156 32.5667 112.247 33.675 113.348 34.822C113.429 34.9076 113.498 34.9564 113.562 35.0048C113.557 35.0043 113.558 34.9941 113.526 35.0312C114.074 36.3571 113.849 37.4934 112.851 38.4863C112.174 39.1593 111.495 39.8299 110.829 40.5129C110.542 40.8069 110.284 41.1294 110.013 41.4347C110.013 41.4304 110.022 41.4307 109.983 41.4238C108.219 43.1341 106.49 44.8481 104.769 46.5691C96.4453 54.8897 88.1171 63.2056 79.8102 71.5426C78.7587 72.5979 77.6434 73.1002 76.1921 72.5053C76.1732 72.4975 76.1342 72.539 76.1046 72.5575C76.1046 72.5575 76.115 72.5567 76.1351 72.532C76.079 72.4546 76.0029 72.4018 75.9268 72.349C75.518 71.9759 75.0957 71.6163 74.7036 71.2263C74.1895 70.715 73.7113 70.1674 73.193 69.6605C72.973 69.4453 72.6885 69.2965 72.4372 69.1122C72.3362 69.0381 72.1992 68.9686 72.1575 68.8653C71.8075 67.9976 71.0938 67.476 70.3806 66.9497C70.3281 66.911 70.2869 66.8449 70.2624 66.7829C70.1422 66.4796 70.0295 66.1734 69.9359 65.8214C69.9572 65.7359 69.9568 65.6972 69.9563 65.6584C69.9416 65.7055 69.9268 65.7526 69.9121 65.7997C69.879 65.5197 69.7692 65.2229 69.8263 64.9627C70.0573 63.9104 70.7663 63.171 71.5283 62.4608C72.2894 61.7514 73.0026 60.9909 73.7468 60.2631C74.4249 59.5998 75.1276 58.9615 75.7985 58.2912C76.3407 57.7496 76.8366 57.1615 77.3794 56.6205C79.487 54.5199 81.6122 52.4368 83.7172 50.3335C85.4526 48.5994 87.1636 46.8409 88.8944 45.1021C91.1525 42.8337 93.4236 40.5782 95.6792 38.3074C96.1626 37.8208 96.4058 37.2253 96.2901 36.5205C96.2842 36.4842 96.284 36.447 96.2803 36.4104C96.1725 35.3148 95.5811 34.3226 94.7717 33.6536C94.4502 33.3879 94.2006 33.0359 93.912 32.7291C93.6185 32.4171 93.3233 32.1063 93.0182 31.8058C92.4421 31.2384 91.8645 30.6721 91.2714 30.1227C91.1763 30.0346 90.9412 30.0802 90.8697 29.9877C90.7105 29.7816 90.6138 29.5272 90.4487 29.2682C90.4056 29.2437 90.3897 29.2266 90.3897 29.2266C90.1795 29.1059 89.9339 29.0207 89.7683 28.8555C89.5744 28.6621 89.4585 28.3925 89.29 28.1703C89.2459 28.1121 89.1034 28.1306 89.0558 28.0728C88.8995 27.8836 88.7686 27.6737 88.6229 27.4754C88.5482 27.3737 88.463 27.2797 88.3417 27.1607C88.3009 27.139 88.2848 27.1217 88.2848 27.1217C87.8272 26.8877 87.4843 26.5431 87.2328 26.0518C87.1932 26.0313 87.1773 26.0142 87.1773 26.0142C86.9401 25.8383 86.9054 25.347 86.4311 25.5351C86.4119 25.5427 86.3434 25.4932 86.346 25.4786C86.4624 24.8046 85.4186 25.0142 85.5023 24.3694C84.9217 24.1886 84.8042 23.5621 84.4042 23.2367C84.2006 23.071 83.9171 23.0333 83.9688 22.629C83.9146 22.6843 83.8603 22.7395 83.8061 22.7948C83.6831 22.677 83.5449 22.5709 83.4422 22.4374C83.3659 22.3382 83.3356 22.2034 83.2451 22.064C83.2053 22.0435 83.1894 22.0263 83.1894 22.0263Z" fill="#FFAC4B"/>
<path d="M70.4763 49.5129C70.9891 50.0118 71.5051 50.5075 72.0138 51.0105C72.6157 51.6056 73.2114 52.207 73.8488 52.87C74.6124 54.2116 74.5051 55.5253 73.549 56.4972C71.957 58.1157 70.355 59.7248 68.7348 61.315C67.8642 62.1696 66.8248 62.3632 65.673 61.9407C65.5038 61.8786 65.3192 61.8581 65.1418 61.8183C65.1418 61.8183 65.1491 61.8125 65.1752 61.784C65.1081 61.7046 65.0148 61.6537 64.9215 61.6029C63.7056 60.3854 62.4925 59.1651 61.2727 57.9515C60.3365 57.0199 59.3876 56.1009 58.4518 55.1689C56.8243 53.5479 55.2013 51.9223 53.5805 50.2946C53.454 50.1675 53.359 50.0092 53.1965 49.8122C53.0814 49.7541 53.019 49.7492 52.9567 49.7442C52.9567 49.7442 52.9637 49.7388 52.9848 49.6976C52.9517 49.6475 52.8975 49.6387 52.8433 49.6299C52.8433 49.6299 52.8511 49.6284 52.8731 49.5866C52.8409 49.5363 52.7867 49.5278 52.7326 49.5194C52.7326 49.5194 52.7404 49.5176 52.7635 49.4757C52.7317 49.4255 52.6767 49.417 52.6218 49.4086C52.6218 49.4086 52.6296 49.4068 52.6527 49.3654C52.6209 49.3152 52.5659 49.3064 52.5109 49.2976C52.5109 49.2976 52.5189 49.2947 52.5511 49.2645C52.4491 49.1456 52.3148 49.0567 52.1805 48.9679C52.1805 48.9679 52.1881 48.9628 52.2201 48.9274C52.1544 48.8434 52.0566 48.7949 51.9588 48.7464C51.9588 48.7464 51.9663 48.7404 51.9965 48.7182C51.9704 48.6437 51.9141 48.5914 51.8577 48.5391C51.7169 48.4096 51.576 48.28 51.4112 48.0736C51.3196 47.9884 51.2518 47.9799 51.184 47.9715C51.184 47.9715 51.1911 47.9665 51.2123 47.9252C51.1793 47.8751 51.1251 47.8664 51.0709 47.8576C51.0709 47.8576 51.0788 47.856 51.1008 47.8145C51.0686 47.7644 51.0143 47.7556 50.9601 47.7468C50.9601 47.7468 50.968 47.7452 50.99 47.7038C50.9578 47.6536 50.9036 47.6448 50.8494 47.636C50.8494 47.636 50.8573 47.6334 50.8896 47.598C50.8245 47.5141 50.7271 47.4656 50.6297 47.4172C50.6297 47.4172 50.637 47.4127 50.6595 47.3713C50.6269 47.3212 50.572 47.3125 50.517 47.3037C50.517 47.3037 50.5249 47.3021 50.5469 47.2607C50.5147 47.2105 50.4605 47.2017 50.4063 47.1929C50.4063 47.1929 50.4141 47.1913 50.4361 47.1499C50.4039 47.0997 50.3497 47.0909 50.2955 47.0822C50.2955 47.0822 50.3034 47.0806 50.3254 47.0391C50.2931 46.9889 50.2389 46.9802 50.1847 46.9714C50.1847 46.9714 50.1926 46.9698 50.2145 46.928C50.1823 46.8777 50.1282 46.8693 50.074 46.8609C50.074 46.8609 50.082 46.8576 50.117 46.8241C50.0526 46.7408 49.9532 46.691 49.8539 46.6412C49.8539 46.6412 49.8613 46.6374 49.8828 46.596C49.85 46.5458 49.7958 46.5371 49.7416 46.5283C49.7416 46.5283 49.7495 46.5267 49.7715 46.4853C49.7393 46.435 49.6851 46.4263 49.6309 46.4175C49.6309 46.4175 49.6387 46.4159 49.6607 46.3745C49.6285 46.3243 49.5743 46.3155 49.5201 46.3067C49.5201 46.3067 49.528 46.3042 49.5606 46.2692C49.4954 46.1853 49.3977 46.1364 49.3 46.0875C49.3 46.0875 49.3074 46.0819 49.3393 46.052C49.2368 45.9332 49.1025 45.8443 48.9681 45.7555C48.9681 45.7555 48.9754 45.7512 48.9967 45.7098C48.9639 45.6596 48.9097 45.6509 48.8554 45.6421C48.8554 45.6421 48.8634 45.6396 48.8959 45.6046C48.8307 45.5207 48.7331 45.4718 48.6354 45.4228C48.6354 45.4228 48.6428 45.4188 48.6645 45.3774C48.6318 45.3273 48.5775 45.3185 48.5231 45.3098C48.5231 45.3098 48.531 45.3082 48.5531 45.2667C48.5209 45.2165 48.4666 45.2078 48.4124 45.199C48.4124 45.199 48.4202 45.1963 48.4526 45.1618C48.3874 45.078 48.2899 45.0288 48.1923 44.9796C48.1923 44.9796 48.2 44.9749 48.2319 44.9399C48.1661 44.856 48.0684 44.8071 47.9707 44.7582C47.9707 44.7582 47.9781 44.7542 47.9998 44.7128C47.9672 44.6626 47.9128 44.6539 47.8585 44.6451C47.8585 44.6451 47.8663 44.6435 47.8885 44.6021C47.8563 44.5519 47.802 44.5431 47.7477 44.5343C47.7477 44.5344 47.7556 44.5327 47.7776 44.4913C47.7454 44.4411 47.6912 44.4323 47.6369 44.4236C47.6369 44.4236 47.6449 44.4206 47.6772 44.3902C47.5752 44.2711 47.4409 44.1826 47.3065 44.0941C47.3065 44.0941 47.3137 44.0894 47.3353 44.0481C47.3026 43.998 47.2482 43.9892 47.1938 43.9805C47.1938 43.9805 47.2017 43.9789 47.2238 43.9374C47.1916 43.8872 47.1373 43.8785 47.0831 43.8697C47.0831 43.8697 47.0909 43.8681 47.113 43.8267C47.0808 43.7765 47.0265 43.7677 46.9723 43.7589C46.9723 43.7589 46.9802 43.7573 47.0022 43.7159C46.97 43.6657 46.9157 43.6569 46.8615 43.6481C46.8615 43.6481 46.8694 43.6455 46.9019 43.6105C46.8369 43.5267 46.7393 43.4778 46.6416 43.429C46.6416 43.429 46.649 43.4249 46.6706 43.3835C46.6379 43.3333 46.5835 43.3246 46.5292 43.3158C46.5292 43.3159 46.5371 43.3142 46.5592 43.2728C46.527 43.2226 46.4727 43.2138 46.4184 43.2051C46.4184 43.2051 46.4263 43.2035 46.4483 43.162C46.4161 43.1118 46.3619 43.1031 46.3076 43.0943C46.3076 43.0943 46.3155 43.0927 46.3375 43.0513C46.3053 43.0011 46.2511 42.9923 46.1969 42.9835C46.1969 42.9835 46.2049 42.9806 46.2375 42.953C46.0986 42.7981 45.9272 42.6707 45.7559 42.5432C45.7559 42.5432 45.7631 42.5387 45.7844 42.4973C45.7514 42.4472 45.6972 42.4384 45.643 42.4296C45.643 42.4296 45.6509 42.428 45.6728 42.3866C45.6406 42.3364 45.5864 42.3276 45.5322 42.3189C45.5322 42.3189 45.5402 42.3164 45.5727 42.2814C45.5075 42.1975 45.4098 42.1485 45.3122 42.0996C45.3122 42.0996 45.3195 42.0956 45.3412 42.0542C45.3086 42.0041 45.2542 41.9953 45.1999 41.9866C45.1999 41.9866 45.2078 41.9839 45.2402 41.9493C45.175 41.8656 45.0774 41.8164 44.9799 41.7671C44.9799 41.7671 44.9873 41.7634 45.0088 41.722C44.976 41.6718 44.9218 41.663 44.8676 41.6542C44.8676 41.6542 44.8755 41.6517 44.9082 41.6171C44.843 41.5332 44.7452 41.484 44.6474 41.4348C44.6474 41.4348 44.6548 41.431 44.6763 41.3896C44.6437 41.3394 44.5895 41.3307 44.5353 41.3219C44.5353 41.3219 44.5431 41.3203 44.5651 41.2789C44.5329 41.2287 44.4787 41.2199 44.4245 41.2111C44.4245 41.2111 44.4324 41.2084 44.4647 41.1739C44.3995 41.0901 44.302 41.0409 44.2045 40.9917C44.2045 40.9917 44.2121 40.987 44.2442 40.9524C44.1785 40.8686 44.0806 40.8194 43.9828 40.7702C43.9828 40.7702 43.9902 40.7663 44.0117 40.725C43.979 40.6748 43.9248 40.666 43.8706 40.6573C43.8706 40.6573 43.8785 40.6557 43.9005 40.6142C43.8682 40.564 43.814 40.5553 43.7598 40.5465C43.7598 40.5465 43.7677 40.5449 43.7897 40.5035C43.7575 40.4533 43.7033 40.4445 43.6491 40.4357C43.6491 40.4357 43.657 40.4327 43.6894 40.4024C43.5873 40.2835 43.4529 40.1947 43.3185 40.106C43.3185 40.106 43.3258 40.1016 43.3472 40.0603C43.3144 40.0102 43.2602 40.0014 43.206 39.9926C43.206 39.9926 43.2138 39.991 43.2358 39.9496C43.2036 39.8994 43.1494 39.8906 43.0952 39.8818C43.0952 39.8818 43.1031 39.8802 43.125 39.8388C43.0928 39.7886 43.0386 39.7798 42.9844 39.7711C42.9844 39.7711 42.9923 39.7695 43.0143 39.728C42.9821 39.6778 42.9279 39.6691 42.8737 39.6603C42.8737 39.6603 42.8816 39.6572 42.9145 39.6275C42.8126 39.5087 42.6779 39.4196 42.5432 39.3306C42.5432 39.3306 42.5505 39.3263 42.5718 39.2849C42.5389 39.2347 42.4848 39.226 42.4306 39.2172C42.4306 39.2172 42.4384 39.2156 42.4604 39.1742C42.4282 39.124 42.374 39.1152 42.3198 39.1064C42.3198 39.1064 42.3276 39.1048 42.3497 39.0634C42.3175 39.0132 42.2632 39.0044 42.209 38.9957C42.209 38.9957 42.2171 38.9924 42.2482 38.9694C42.2221 38.8939 42.1648 38.8413 42.1075 38.7888C41.5776 38.4718 41.462 37.882 41.1503 37.4184C41.1108 36.9589 41.1108 36.4763 41.1108 35.9422C41.1849 35.8514 41.3073 35.8277 41.3261 35.7702C41.6888 34.6604 42.6273 34.0203 43.3867 33.2377C44.1785 32.4218 44.9898 31.6248 45.7939 30.8209C46.5977 30.0172 47.4037 29.2155 48.208 28.4121C49.1107 27.5104 50.012 26.6074 50.9147 25.7056C51.9015 24.7199 52.8882 23.7341 53.8767 22.7499C54.7558 21.8747 55.6403 21.0048 56.5167 20.1269C57.4887 19.1531 58.4527 18.1714 59.4229 17.1958C60.2121 16.4022 60.9984 15.6055 61.7982 14.8226C62.9127 13.7317 64.0373 12.6511 65.1599 11.5685C66.2779 10.4903 67.7584 10.7027 68.7875 11.4229C69.3949 11.8479 69.8824 12.4456 70.4182 12.9714C70.8768 13.4215 71.3325 13.8748 71.78 14.3359C72.1676 14.7353 72.5396 15.1497 72.9226 15.5535C73.219 15.8659 73.5218 16.1722 73.8661 16.5387C74.8562 17.9886 74.7627 19.3084 73.5979 20.4927C71.957 22.161 70.3019 23.8153 68.6467 25.4694C65.6751 28.4392 62.7005 31.4061 59.723 34.3701C59.1821 34.9086 58.8199 35.5226 58.7537 36.2999C58.6923 37.0202 58.8986 37.7144 59.2864 37.9913C59.2864 37.9913 59.2785 37.9952 59.2486 38.0178C59.2695 38.1024 59.3204 38.1643 59.3712 38.2262C59.4123 38.2748 59.4534 38.3235 59.4757 38.4224C59.6591 38.682 59.8613 38.8913 60.0636 39.1005C60.1275 39.152 60.1914 39.2035 60.2691 39.3231C60.3931 39.4785 60.5032 39.566 60.6133 39.6534C60.6133 39.6534 60.6075 39.657 60.6201 39.6804C60.6648 39.7243 60.6968 39.7448 60.7288 39.7653C60.8284 39.8527 60.928 39.9401 61.0426 40.0977C61.2064 40.2921 61.3553 40.4162 61.5041 40.5402C61.5678 40.5918 61.6315 40.6433 61.7168 40.7513C61.7695 40.8295 61.8008 40.8512 61.832 40.873C61.832 40.873 61.8257 40.8753 61.8379 40.8984C61.881 40.9423 61.9119 40.963 61.9428 40.9837C61.9428 40.9837 61.9363 40.9858 61.9405 41.0218C62.0566 41.1434 62.1685 41.229 62.2804 41.3146C62.3176 41.3186 62.3464 41.3364 62.385 41.4199C62.4346 41.4939 62.4659 41.5157 62.4972 41.5375C62.4972 41.5375 62.4905 41.5398 62.5027 41.5628C62.5459 41.6066 62.5769 41.6274 62.6079 41.6482C62.6079 41.6482 62.6013 41.6506 62.6136 41.6737C62.6571 41.7174 62.6883 41.738 62.7196 41.7587C62.7196 41.7587 62.7123 41.761 62.7163 41.7963C62.8309 41.9177 62.9415 42.0037 63.0521 42.0897C63.0521 42.0897 63.0449 42.0932 63.0568 42.116C63.0996 42.16 63.1306 42.1811 63.1616 42.2022C63.1616 42.2022 63.1551 42.2045 63.1673 42.2276C63.2104 42.2714 63.2414 42.2921 63.2724 42.3129C63.2724 42.3129 63.2659 42.3153 63.2786 42.3387C63.3233 42.3827 63.3553 42.4033 63.3873 42.4239C63.4248 42.4272 63.4537 42.4446 63.4848 42.54C63.6056 42.6911 63.7157 42.7785 63.8259 42.8659C63.8259 42.8659 63.8199 42.8694 63.832 42.8924C63.875 42.9361 63.9059 42.9569 63.9368 42.9776C63.9368 42.9776 63.9305 42.98 63.9432 43.0034C63.988 43.0474 64.02 43.068 64.052 43.0885C64.1158 43.14 64.1796 43.1914 64.2571 43.3112C64.4194 43.5039 64.5679 43.6284 64.7164 43.7528C64.7538 43.7563 64.7828 43.7737 64.8152 43.8671C64.9001 43.9804 64.9732 44.0318 65.0463 44.0831C65.0463 44.0831 65.0388 44.0866 65.0507 44.1095C65.0938 44.1536 65.1248 44.1748 65.1559 44.196C65.1559 44.196 65.149 44.1981 65.153 44.2337C65.2682 44.3548 65.3794 44.4401 65.4905 44.5255C65.4905 44.5255 65.4828 44.5305 65.4876 44.5633C65.5653 44.6466 65.6381 44.6972 65.7109 44.7477C65.7109 44.7477 65.7034 44.7513 65.7154 44.7742C65.7585 44.8182 65.7896 44.8394 65.8207 44.8606C65.8207 44.8606 65.8139 44.8629 65.826 44.8859C65.8693 44.9297 65.9004 44.9505 65.9315 44.9713C65.9315 44.9713 65.9244 44.9735 65.9284 45.0092C66.08 45.1673 66.2277 45.2898 66.3755 45.4123C66.3755 45.4123 66.368 45.4159 66.38 45.4388C66.4232 45.4829 66.4543 45.504 66.4854 45.5252C66.4854 45.5252 66.4785 45.5275 66.4907 45.5505C66.534 45.5943 66.5651 45.6151 66.5962 45.6359C66.5962 45.6359 66.5893 45.6383 66.6016 45.6613C66.6452 45.705 66.6765 45.7257 66.7078 45.7463C66.7078 45.7463 66.7003 45.7488 66.7019 45.7729C66.716 45.8289 66.7284 45.8609 66.7408 45.8929C66.7641 45.8511 66.7873 45.8093 66.8106 45.7675C66.8846 45.8468 66.9585 45.9261 67.018 46.0575C67.0533 46.1364 67.103 46.1631 67.1528 46.1898C67.2167 46.2416 67.2806 46.2934 67.3583 46.4135C67.5575 46.643 67.7429 46.8041 67.9283 46.9653C67.9659 46.9689 67.995 46.9865 68.0263 47.0823C68.1477 47.2329 68.2585 47.3196 68.3693 47.4063C68.3693 47.4063 68.3614 47.4099 68.3656 47.4452C68.4804 47.5666 68.5911 47.6527 68.7019 47.7388C68.7019 47.7388 68.6947 47.7433 68.6986 47.7785C68.8139 47.8998 68.9254 47.986 69.0369 48.0722C69.0743 48.0766 69.1032 48.0947 69.1338 48.1904C69.3666 48.4524 69.5891 48.6503 69.8115 48.8483C69.8492 48.852 69.8783 48.8697 69.9092 48.9658C70.1052 49.191 70.2907 49.3519 70.4763 49.5129Z" fill="#C44536"/>
</g>
<defs>
<clipPath id="clip0_1_9">
<rect width="73" height="73" fill="white" transform="translate(41)"/>
</clipPath>
</defs>
</svg>
