<svg width="156" height="106" viewBox="0 0 156 106" fill="none" xmlns="http://www.w3.org/2000/svg">
<path d="M83.1894 21.9052C82.9618 21.7101 82.8963 21.2622 82.4372 21.4233C82.4172 21.4303 82.3504 21.3804 82.3529 21.3643C82.4466 20.7539 81.7344 20.846 81.628 20.5819C81.4789 20.2121 81.2844 19.9579 81.0034 19.7156C80.8359 19.5712 80.7848 19.2265 80.4441 19.4343C80.302 19.1865 80.1447 18.7228 80.0207 18.7315C79.6491 18.7577 79.4907 18.6257 79.4632 18.3149C79.4385 18.0372 79.3889 17.8867 79.0645 17.9712C79.0031 17.9872 78.8569 17.8722 78.8289 17.7906C78.6308 17.2118 78.3199 16.7675 77.6639 16.6587C77.5918 16.6467 77.5113 16.5437 77.4774 16.4645C77.1222 15.6359 76.4993 15.1194 75.7332 14.6466C75.3861 14.4325 74.7611 14.1533 74.8073 13.4937C74.8092 13.4667 74.7671 13.4132 74.7421 13.4111C74.0755 13.3535 74.034 12.677 73.6802 12.313C73.4287 12.0544 73.0868 11.9256 72.8724 11.6121C72.6366 11.267 72.3269 10.9633 72.0108 10.6854C71.7756 10.4787 71.4546 10.3698 71.2179 10.1643C71.0464 10.0155 70.9519 9.77878 70.8201 9.58325C70.7459 9.47313 70.668 9.36531 70.5877 9.25954C70.4756 9.11194 70.3597 8.96723 70.2604 8.77588C70.265 8.73408 70.2548 8.73766 70.2446 8.74124C70.2088 8.62055 70.1731 8.49986 70.1504 8.33304C70.1537 8.29074 70.1438 8.29458 70.134 8.29841C70.0201 7.38183 70.0885 6.51444 70.7911 5.81261C72.4721 4.1336 74.1417 2.44302 75.839 0.780703C76.2455 0.38256 76.7792 0.19374 77.3736 0.201238C77.6128 0.204255 77.8531 0.120515 78.1011 0.032993C78.1585 -0.0102735 78.2077 -0.0102735 78.2936 0.0288076C78.432 0.179493 78.5223 0.372377 78.6375 0.388684C79.1463 0.460675 79.4994 0.743083 79.8393 1.09982C80.457 1.74818 81.099 2.37385 81.7409 2.99864C82.4456 3.68455 83.1769 4.34369 83.8695 5.04146C85.0585 6.23952 86.2202 7.46475 87.4066 8.66549C87.8454 9.10955 88.3384 9.50005 88.777 9.94431C89.5613 10.7388 90.3092 11.5694 91.0982 12.359C91.8351 13.0963 92.6207 13.7849 93.3573 14.5226C94.1459 15.3124 94.8922 16.1443 95.675 16.9402C96.6994 17.9818 97.7426 19.0049 98.7756 20.0381C99.9398 21.2024 101.094 22.3768 102.266 23.5325C103.603 24.8501 104.969 26.1383 106.297 27.4645C107.571 28.7374 108.812 30.0442 110.07 31.3331C111.156 32.4457 112.247 33.554 113.348 34.701C113.429 34.7866 113.498 34.8354 113.562 34.8837C113.557 34.8833 113.558 34.873 113.526 34.9101C114.074 36.236 113.849 37.3724 112.851 38.3653C112.174 39.0382 111.495 39.7089 110.829 40.3918C110.542 40.6858 110.284 41.0084 110.013 41.3137C110.013 41.3094 110.022 41.3096 109.983 41.3028C108.219 43.0131 106.49 44.727 104.769 46.4481C96.4453 54.7687 88.1171 63.0845 79.8102 71.4215C78.7587 72.4768 77.6434 72.9792 76.1921 72.3842C76.1732 72.3765 76.1342 72.4179 76.1046 72.4364C76.1046 72.4364 76.115 72.4356 76.1351 72.411C76.079 72.3335 76.0029 72.2808 75.9268 72.228C75.518 71.8549 75.0957 71.4953 74.7036 71.1053C74.1895 70.5939 73.7113 70.0463 73.193 69.5395C72.973 69.3242 72.6885 69.1754 72.4372 68.9912C72.3362 68.9171 72.1992 68.8476 72.1575 68.7442C71.8075 67.8765 71.0938 67.355 70.3806 66.8287C70.3281 66.79 70.2869 66.7239 70.2624 66.6618C70.1422 66.3586 70.0295 66.0523 69.9359 65.7004C69.9572 65.6149 69.9568 65.5761 69.9563 65.5374C69.9416 65.5845 69.9268 65.6316 69.9121 65.6786C69.879 65.3987 69.7692 65.1018 69.8263 64.8416C70.0573 63.7894 70.7663 63.05 71.5283 62.3398C72.2894 61.6304 73.0026 60.8699 73.7468 60.142C74.4249 59.4788 75.1276 58.8404 75.7985 58.1702C76.3407 57.6285 76.8366 57.0405 77.3794 56.4995C79.487 54.3988 81.6122 52.3158 83.7172 50.2124C85.4526 48.4783 87.1636 46.7198 88.8944 44.9811C91.1525 42.7127 93.4236 40.4572 95.6792 38.1864C96.1626 37.6997 96.4058 37.1043 96.2901 36.3994C96.2842 36.3631 96.284 36.326 96.2803 36.2893C96.1725 35.1938 95.5811 34.2016 94.7717 33.5326C94.4502 33.2668 94.2006 32.9149 93.912 32.6081C93.6185 32.2961 93.3233 31.9853 93.0182 31.6848C92.4421 31.1174 91.8645 30.5511 91.2714 30.0017C91.1763 29.9136 90.9412 29.9592 90.8697 29.8666C90.7104 29.6606 90.6138 29.4062 90.4487 29.1471C90.4056 29.1227 90.3897 29.1055 90.3897 29.1055C90.1795 28.9849 89.9339 28.8997 89.7683 28.7344C89.5744 28.541 89.4585 28.2715 89.29 28.0492C89.2459 27.9911 89.1034 28.0095 89.0558 27.9518C88.8995 27.7625 88.7686 27.5526 88.6229 27.3543C88.5482 27.2526 88.463 27.1587 88.3417 27.0396C88.3009 27.018 88.2848 27.0006 88.2848 27.0006C87.8272 26.7667 87.4843 26.4221 87.2328 25.9307C87.1932 25.9103 87.1773 25.8931 87.1773 25.8931C86.9401 25.7173 86.9054 25.2259 86.4311 25.4141C86.4119 25.4217 86.3434 25.3722 86.346 25.3576C86.4624 24.6835 85.4186 24.8932 85.5023 24.2484C84.9217 24.0676 84.8042 23.4411 84.4042 23.1156C84.2006 22.9499 83.9171 22.9122 83.9688 22.5079C83.9146 22.5632 83.8603 22.6185 83.8061 22.6738C83.6831 22.5559 83.5449 22.4499 83.4422 22.3164C83.3659 22.2171 83.3356 22.0824 83.2451 21.9429C83.2053 21.9224 83.1894 21.9052 83.1894 21.9052Z" fill="#9DF2E9"/>
<path d="M70.4763 49.3918C70.9891 49.8908 71.5051 50.3865 72.0138 50.8895C72.6157 51.4846 73.2114 52.086 73.8488 52.749C74.6124 54.0905 74.5051 55.4043 73.549 56.3761C71.957 57.9946 70.355 59.6037 68.7348 61.194C67.8642 62.0485 66.8248 62.2421 65.673 61.8197C65.5038 61.7576 65.3192 61.737 65.1418 61.6973C65.1418 61.6973 65.1491 61.6915 65.1752 61.663C65.1081 61.5836 65.0148 61.5327 64.9215 61.4818C63.7056 60.2644 62.4925 59.0441 61.2727 57.8304C60.3365 56.8989 59.3876 55.9799 58.4518 55.0479C56.8243 53.4269 55.2013 51.8012 53.5805 50.1735C53.454 50.0465 53.359 49.8881 53.1965 49.6912C53.0814 49.6331 53.019 49.6281 52.9567 49.6232C52.9567 49.6232 52.9637 49.6178 52.9848 49.5765C52.9517 49.5264 52.8975 49.5177 52.8433 49.5089C52.8433 49.5089 52.8511 49.5073 52.8731 49.4655C52.8409 49.4152 52.7867 49.4068 52.7326 49.3983C52.7326 49.3983 52.7404 49.3965 52.7635 49.3547C52.7317 49.3044 52.6767 49.296 52.6218 49.2876C52.6218 49.2876 52.6296 49.2857 52.6527 49.2443C52.6209 49.1941 52.5659 49.1853 52.5109 49.1765C52.5109 49.1765 52.5189 49.1736 52.5511 49.1435C52.4491 49.0245 52.3148 48.9357 52.1805 48.8468C52.1805 48.8468 52.1881 48.8418 52.2201 48.8063C52.1544 48.7224 52.0566 48.6738 51.9588 48.6253C51.9588 48.6253 51.9663 48.6193 51.9965 48.5972C51.9704 48.5227 51.9141 48.4704 51.8577 48.4181C51.7169 48.2885 51.576 48.159 51.4112 47.9526C51.3196 47.8673 51.2518 47.8589 51.184 47.8505C51.184 47.8505 51.1911 47.8454 51.2123 47.8041C51.1793 47.7541 51.1251 47.7453 51.0709 47.7365C51.0709 47.7365 51.0788 47.7349 51.1008 47.6935C51.0686 47.6433 51.0143 47.6345 50.9601 47.6258C50.9601 47.6258 50.968 47.6241 50.99 47.5827C50.9578 47.5325 50.9036 47.5238 50.8494 47.515C50.8494 47.515 50.8573 47.5123 50.8896 47.4769C50.8245 47.393 50.7271 47.3446 50.6297 47.2961C50.6297 47.2961 50.637 47.2916 50.6595 47.2503C50.6269 47.2002 50.572 47.1914 50.517 47.1827C50.517 47.1827 50.5249 47.181 50.5469 47.1396C50.5147 47.0894 50.4605 47.0807 50.4063 47.0719C50.4063 47.0719 50.4141 47.0703 50.4361 47.0288C50.4039 46.9787 50.3497 46.9699 50.2955 46.9611C50.2955 46.9611 50.3034 46.9595 50.3254 46.9181C50.2931 46.8679 50.2389 46.8591 50.1847 46.8504C50.1847 46.8504 50.1926 46.8487 50.2145 46.8069C50.1823 46.7567 50.1282 46.7483 50.074 46.7398C50.074 46.7398 50.082 46.7366 50.117 46.7031C50.0526 46.6197 49.9532 46.5699 49.8539 46.5201C49.8539 46.5201 49.8613 46.5164 49.8828 46.475C49.85 46.4248 49.7958 46.416 49.7416 46.4072C49.7416 46.4072 49.7495 46.4056 49.7715 46.3642C49.7393 46.314 49.6851 46.3052 49.6309 46.2965C49.6309 46.2965 49.6387 46.2949 49.6607 46.2534C49.6285 46.2032 49.5743 46.1945 49.5201 46.1857C49.5201 46.1857 49.528 46.1832 49.5606 46.1482C49.4954 46.0643 49.3977 46.0154 49.3 45.9665C49.3 45.9665 49.3074 45.9609 49.3393 45.9309C49.2368 45.8121 49.1025 45.7233 48.9681 45.6344C48.9681 45.6344 48.9754 45.6301 48.9967 45.5887C48.9639 45.5386 48.9097 45.5298 48.8554 45.521C48.8554 45.521 48.8634 45.5185 48.8959 45.4836C48.8307 45.3996 48.7331 45.3507 48.6354 45.3018C48.6354 45.3018 48.6428 45.2978 48.6645 45.2564C48.6318 45.2062 48.5775 45.1975 48.5231 45.1887C48.5231 45.1887 48.531 45.1871 48.5531 45.1457C48.5209 45.0955 48.4666 45.0867 48.4124 45.0779C48.4124 45.0779 48.4202 45.0753 48.4526 45.0407C48.3874 44.957 48.2899 44.9077 48.1923 44.8585C48.1923 44.8585 48.2 44.8539 48.2319 44.8189C48.1661 44.735 48.0684 44.6861 47.9707 44.6372C47.9707 44.6372 47.9781 44.6331 47.9998 44.5917C47.9672 44.5416 47.9128 44.5328 47.8585 44.5241C47.8585 44.5241 47.8663 44.5225 47.8885 44.481C47.8563 44.4308 47.802 44.4221 47.7477 44.4133C47.7477 44.4133 47.7556 44.4117 47.7776 44.3703C47.7454 44.3201 47.6912 44.3113 47.6369 44.3025C47.6369 44.3025 47.6449 44.2996 47.6772 44.2691C47.5752 44.1501 47.4409 44.0616 47.3065 43.973C47.3065 43.973 47.3137 43.9684 47.3353 43.927C47.3026 43.8769 47.2482 43.8682 47.1938 43.8594C47.1938 43.8594 47.2017 43.8578 47.2238 43.8164C47.1916 43.7662 47.1373 43.7574 47.0831 43.7487C47.0831 43.7487 47.0909 43.7471 47.113 43.7056C47.0808 43.6554 47.0265 43.6466 46.9723 43.6379C46.9723 43.6379 46.9802 43.6363 47.0022 43.5948C46.97 43.5446 46.9157 43.5359 46.8615 43.5271C46.8615 43.5271 46.8694 43.5244 46.9019 43.4895C46.8369 43.4057 46.7393 43.3568 46.6416 43.3079C46.6416 43.3079 46.649 43.3039 46.6706 43.2625C46.6379 43.2123 46.5835 43.2035 46.5292 43.1948C46.5292 43.1948 46.5371 43.1932 46.5592 43.1517C46.527 43.1015 46.4727 43.0928 46.4184 43.084C46.4184 43.084 46.4263 43.0824 46.4483 43.041C46.4161 42.9908 46.3619 42.982 46.3076 42.9732C46.3076 42.9732 46.3155 42.9716 46.3375 42.9302C46.3053 42.88 46.2511 42.8712 46.1969 42.8625C46.1969 42.8625 46.2049 42.8595 46.2375 42.832C46.0986 42.677 45.9272 42.5496 45.7559 42.4222C45.7559 42.4222 45.7631 42.4177 45.7844 42.3763C45.7514 42.3262 45.6972 42.3174 45.643 42.3086C45.643 42.3086 45.6509 42.307 45.6728 42.2656C45.6406 42.2154 45.5864 42.2066 45.5322 42.1978C45.5322 42.1978 45.5402 42.1953 45.5727 42.1603C45.5075 42.0764 45.4098 42.0275 45.3122 41.9786C45.3122 41.9786 45.3195 41.9746 45.3412 41.9332C45.3086 41.883 45.2542 41.8743 45.1999 41.8655C45.1999 41.8655 45.2078 41.8628 45.2402 41.8283C45.175 41.7445 45.0774 41.6953 44.9799 41.6461C44.9799 41.6461 44.9873 41.6423 45.0088 41.6009C44.976 41.5507 44.9218 41.5419 44.8676 41.5332C44.8676 41.5332 44.8755 41.5307 44.9082 41.496C44.843 41.4122 44.7452 41.363 44.6474 41.3138C44.6474 41.3138 44.6548 41.3099 44.6763 41.2686C44.6437 41.2184 44.5895 41.2096 44.5353 41.2009C44.5353 41.2009 44.5431 41.1993 44.5651 41.1578C44.5329 41.1076 44.4787 41.0988 44.4245 41.0901C44.4245 41.0901 44.4324 41.0874 44.4647 41.0528C44.3995 40.9691 44.302 40.9199 44.2045 40.8707C44.2045 40.8707 44.2121 40.866 44.2442 40.8314C44.1785 40.7476 44.0806 40.6984 43.9828 40.6491C43.9828 40.6491 43.9902 40.6453 44.0117 40.6039C43.979 40.5538 43.9248 40.545 43.8706 40.5362C43.8706 40.5362 43.8785 40.5346 43.9005 40.4932C43.8682 40.443 43.814 40.4342 43.7598 40.4254C43.7598 40.4254 43.7677 40.4238 43.7897 40.3824C43.7575 40.3322 43.7033 40.3234 43.6491 40.3147C43.6491 40.3147 43.657 40.3117 43.6894 40.2814C43.5873 40.1624 43.4529 40.0737 43.3185 39.985C43.3185 39.985 43.3258 39.9806 43.3472 39.9392C43.3144 39.8891 43.2602 39.8803 43.206 39.8716C43.206 39.8716 43.2138 39.87 43.2358 39.8285C43.2036 39.7783 43.1494 39.7696 43.0952 39.7608C43.0952 39.7608 43.1031 39.7592 43.125 39.7178C43.0928 39.6676 43.0386 39.6588 42.9844 39.65C42.9844 39.65 42.9923 39.6484 43.0143 39.607C42.9821 39.5568 42.9279 39.548 42.8737 39.5392C42.8737 39.5392 42.8816 39.5362 42.9145 39.5064C42.8126 39.3876 42.6779 39.2986 42.5432 39.2095C42.5432 39.2095 42.5505 39.2053 42.5718 39.1639C42.5389 39.1137 42.4848 39.1049 42.4306 39.0962C42.4306 39.0962 42.4384 39.0946 42.4604 39.0531C42.4282 39.0029 42.374 38.9942 42.3198 38.9854C42.3198 38.9854 42.3276 38.9838 42.3497 38.9423C42.3175 38.8921 42.2632 38.8834 42.209 38.8746C42.209 38.8746 42.2171 38.8713 42.2482 38.8484C42.2221 38.7729 42.1648 38.7203 42.1075 38.6677C41.5776 38.3508 41.462 37.761 41.1503 37.2974C41.1108 36.8379 41.1108 36.3553 41.1108 35.8212C41.1849 35.7303 41.3073 35.7067 41.3261 35.6492C41.6888 34.5393 42.6273 33.8992 43.3867 33.1166C44.1785 32.3007 44.9898 31.5038 45.7939 30.6999C46.5977 29.8961 47.4037 29.0944 48.208 28.2911C49.1107 27.3893 50.012 26.4863 50.9147 25.5846C51.9015 24.5988 52.8882 23.613 53.8767 22.6289C54.7558 21.7536 55.6403 20.8838 56.5167 20.0058C57.4887 19.0321 58.4527 18.0504 59.4229 17.0748C60.2121 16.2811 60.9984 15.4844 61.7982 14.7016C62.9127 13.6107 64.0373 12.5301 65.1599 11.4474C66.2779 10.3692 67.7584 10.5816 68.7875 11.3018C69.3949 11.7269 69.8824 12.3245 70.4182 12.8503C70.8768 13.3004 71.3325 13.7537 71.78 14.2148C72.1676 14.6142 72.5396 15.0287 72.9226 15.4325C73.219 15.7449 73.5218 16.0512 73.8661 16.4176C74.8562 17.8676 74.7627 19.1874 73.5979 20.3716C71.957 22.0399 70.3019 23.6943 68.6467 25.3484C65.6751 28.3182 62.7005 31.285 59.723 34.249C59.1821 34.7876 58.8199 35.4016 58.7537 36.1788C58.6923 36.8991 58.8986 37.5933 59.2864 37.8703C59.2864 37.8703 59.2785 37.8741 59.2486 37.8968C59.2695 37.9813 59.3204 38.0432 59.3712 38.1051C59.4123 38.1538 59.4534 38.2025 59.4757 38.3014C59.6591 38.5609 59.8613 38.7702 60.0636 38.9795C60.1275 39.031 60.1914 39.0825 60.2691 39.202C60.3931 39.3575 60.5032 39.4449 60.6133 39.5324C60.6133 39.5324 60.6075 39.536 60.6201 39.5594C60.6648 39.6033 60.6968 39.6238 60.7288 39.6443C60.8284 39.7317 60.928 39.819 61.0426 39.9767C61.2064 40.171 61.3553 40.2951 61.5041 40.4192C61.5678 40.4707 61.6315 40.5223 61.7168 40.6303C61.7695 40.7084 61.8008 40.7302 61.832 40.7519C61.832 40.7519 61.8257 40.7543 61.8379 40.7774C61.881 40.8212 61.9119 40.8419 61.9428 40.8626C61.9428 40.8626 61.9363 40.8648 61.9405 40.9008C62.0566 41.0224 62.1685 41.108 62.2804 41.1936C62.3176 41.1976 62.3464 41.2153 62.385 41.2989C62.4346 41.3728 62.4659 41.3946 62.4972 41.4164C62.4972 41.4164 62.4905 41.4187 62.5027 41.4418C62.5459 41.4856 62.5769 41.5064 62.6079 41.5272C62.6079 41.5272 62.6013 41.5295 62.6136 41.5526C62.6571 41.5963 62.6883 41.617 62.7196 41.6376C62.7196 41.6376 62.7123 41.6399 62.7163 41.6753C62.8309 41.7966 62.9415 41.8826 63.0521 41.9686C63.0521 41.9686 63.0449 41.9721 63.0568 41.995C63.0996 42.0389 63.1306 42.06 63.1616 42.0811C63.1616 42.0811 63.1551 42.0835 63.1673 42.1065C63.2104 42.1503 63.2414 42.1711 63.2724 42.1919C63.2724 42.1919 63.2659 42.1942 63.2786 42.2177C63.3233 42.2617 63.3553 42.2823 63.3873 42.3029C63.4248 42.3061 63.4537 42.3236 63.4848 42.4189C63.6056 42.57 63.7157 42.6574 63.8259 42.7448C63.8259 42.7448 63.8199 42.7483 63.832 42.7713C63.875 42.8151 63.9059 42.8358 63.9368 42.8566C63.9368 42.8566 63.9305 42.859 63.9432 42.8824C63.988 42.9264 64.02 42.9469 64.052 42.9675C64.1158 43.0189 64.1796 43.0703 64.2571 43.1901C64.4194 43.3829 64.5679 43.5073 64.7164 43.6317C64.7538 43.6352 64.7828 43.6527 64.8152 43.7461C64.9001 43.8593 64.9732 43.9107 65.0463 43.9621C65.0463 43.9621 65.0388 43.9656 65.0507 43.9885C65.0938 44.0326 65.1248 44.0538 65.1559 44.0749C65.1559 44.0749 65.149 44.0771 65.153 44.1127C65.2682 44.2337 65.3794 44.3191 65.4905 44.4045C65.4905 44.4045 65.4828 44.4095 65.4876 44.4422C65.5653 44.5256 65.6381 44.5761 65.7109 44.6267C65.7109 44.6267 65.7034 44.6302 65.7154 44.6531C65.7585 44.6972 65.7896 44.7184 65.8207 44.7395C65.8207 44.7395 65.8139 44.7418 65.826 44.7648C65.8693 44.8086 65.9004 44.8295 65.9315 44.8503C65.9315 44.8503 65.9244 44.8524 65.9284 44.8881C66.08 45.0463 66.2277 45.1688 66.3755 45.2912C66.3755 45.2912 66.368 45.2949 66.38 45.3178C66.4232 45.3618 66.4543 45.383 66.4854 45.4041C66.4854 45.4041 66.4785 45.4065 66.4907 45.4294C66.534 45.4732 66.5651 45.4941 66.5962 45.5149C66.5962 45.5149 66.5893 45.5172 66.6016 45.5403C66.6452 45.584 66.6765 45.6046 66.7078 45.6253C66.7078 45.6253 66.7003 45.6277 66.7019 45.6518C66.716 45.7079 66.7284 45.7399 66.7408 45.7719C66.7641 45.7301 66.7873 45.6883 66.8106 45.6465C66.8846 45.7258 66.9585 45.8051 67.018 45.9365C67.0533 46.0153 67.103 46.042 67.1528 46.0688C67.2167 46.1206 67.2806 46.1723 67.3583 46.2925C67.5575 46.5219 67.7429 46.6831 67.9283 46.8442C67.9659 46.8478 67.995 46.8655 68.0263 46.9612C68.1477 47.1119 68.2585 47.1986 68.3693 47.2852C68.3693 47.2852 68.3614 47.2888 68.3656 47.3241C68.4804 47.4455 68.5911 47.5316 68.7019 47.6178C68.7019 47.6178 68.6947 47.6223 68.6986 47.6575C68.8139 47.7788 68.9254 47.865 69.0369 47.9511C69.0743 47.9556 69.1032 47.9736 69.1338 48.0693C69.3666 48.3314 69.5891 48.5293 69.8115 48.7272C69.8492 48.7309 69.8783 48.7487 69.9092 48.8448C70.1052 49.0699 70.2907 49.2309 70.4763 49.3918Z" fill="#81D5CD"/>
<path d="M31.1709 101.879H27.4209L27.4444 98.9258H31.1709C32.0225 98.9258 32.7412 98.7305 33.3272 98.3399C33.9131 97.9415 34.3584 97.3555 34.6631 96.5821C34.9678 95.8008 35.1202 94.8516 35.1202 93.7344V92.9493C35.1202 92.1055 35.0342 91.3633 34.8623 90.7227C34.6905 90.0743 34.4366 89.5313 34.1006 89.0938C33.7647 88.6563 33.3467 88.3282 32.8467 88.1094C32.3545 87.8907 31.7881 87.7813 31.1475 87.7813H27.3506V84.8165H31.1475C32.3037 84.8165 33.3584 85.0118 34.3116 85.4024C35.2725 85.793 36.1006 86.3516 36.7959 87.0782C37.4991 87.8047 38.042 88.6641 38.4248 89.6563C38.8077 90.6485 38.9991 91.754 38.9991 92.9727V93.7344C38.9991 94.9454 38.8077 96.0508 38.4248 97.0508C38.042 98.043 37.4991 98.9024 36.7959 99.629C36.1006 100.348 35.2764 100.902 34.3233 101.293C33.3702 101.684 32.3194 101.879 31.1709 101.879ZM29.5889 84.8165V101.879H25.7686V84.8165H29.5889ZM46.8802 102.113C45.8723 102.113 44.97 101.953 44.1731 101.633C43.3763 101.313 42.7005 100.871 42.1458 100.309C41.5989 99.7383 41.1809 99.0821 40.8919 98.3399C40.6028 97.5977 40.4583 96.8047 40.4583 95.961V95.5157C40.4583 94.5704 40.5911 93.6993 40.8567 92.9024C41.1223 92.1055 41.5091 91.4141 42.0169 90.8282C42.5325 90.2344 43.1653 89.7774 43.9153 89.4571C44.6653 89.129 45.5208 88.9649 46.4817 88.9649C47.3802 88.9649 48.1809 89.1133 48.8841 89.4102C49.5872 89.6993 50.1809 90.1172 50.6653 90.6641C51.1497 91.2032 51.5169 91.8555 51.7669 92.6211C52.0247 93.379 52.1536 94.2305 52.1536 95.1758V96.6758H41.9348V94.3204H48.5677V94.0391C48.5677 93.5938 48.4856 93.2032 48.3216 92.8672C48.1653 92.5313 47.9309 92.2735 47.6184 92.0938C47.3138 91.9063 46.927 91.8125 46.4583 91.8125C46.013 91.8125 45.6419 91.9063 45.345 92.0938C45.0481 92.2813 44.8098 92.5469 44.6302 92.8907C44.4583 93.2266 44.3333 93.6211 44.2552 94.0743C44.177 94.5196 44.138 95 44.138 95.5157V95.961C44.138 96.4532 44.2044 96.9024 44.3372 97.3086C44.47 97.7149 44.6653 98.0625 44.9231 98.3516C45.1809 98.6407 45.4934 98.8672 45.8606 99.0313C46.2278 99.1954 46.6458 99.2774 47.1145 99.2774C47.6927 99.2774 48.2434 99.168 48.7669 98.9493C49.2903 98.7227 49.7434 98.3711 50.1263 97.8946L51.8372 99.8516C51.5794 100.227 51.2161 100.59 50.7473 100.941C50.2864 101.285 49.7317 101.566 49.0833 101.785C48.4348 102.004 47.7005 102.113 46.8802 102.113ZM57.5503 83.879V101.879H53.8823V83.879H57.5503ZM63.8025 89.1993V101.879H60.1345V89.1993H63.8025ZM59.9119 85.918C59.9119 85.3868 60.0994 84.9532 60.4744 84.6172C60.8494 84.2735 61.3416 84.1016 61.9509 84.1016C62.5603 84.1016 63.0525 84.2735 63.4275 84.6172C63.8103 84.9532 64.0017 85.3868 64.0017 85.918C64.0017 86.4415 63.8103 86.875 63.4275 87.2188C63.0525 87.5547 62.5603 87.7227 61.9509 87.7227C61.3416 87.7227 60.8494 87.5547 60.4744 87.2188C60.0994 86.875 59.9119 86.4415 59.9119 85.918ZM70.6406 99.2891L73.2891 89.1993H77.1328L72.9258 101.879H70.6172L70.6406 99.2891ZM68.9297 89.1993L71.5664 99.3008L71.5898 101.879H69.2812L65.0742 89.1993H68.9297ZM84.053 102.113C83.0452 102.113 82.1428 101.953 81.3459 101.633C80.5491 101.313 79.8733 100.871 79.3186 100.309C78.7717 99.7383 78.3537 99.0821 78.0647 98.3399C77.7756 97.5977 77.6311 96.8047 77.6311 95.961V95.5157C77.6311 94.5704 77.7639 93.6993 78.0295 92.9024C78.2952 92.1055 78.6819 91.4141 79.1897 90.8282C79.7053 90.2344 80.3381 89.7774 81.0881 89.4571C81.8381 89.129 82.6936 88.9649 83.6545 88.9649C84.553 88.9649 85.3537 89.1133 86.0569 89.4102C86.76 89.6993 87.3537 90.1172 87.8381 90.6641C88.3225 91.2032 88.6897 91.8555 88.9397 92.6211C89.1975 93.379 89.3264 94.2305 89.3264 95.1758V96.6758H79.1077V94.3204H85.7405V94.0391C85.7405 93.5938 85.6584 93.2032 85.4944 92.8672C85.3381 92.5313 85.1037 92.2735 84.7912 92.0938C84.4866 91.9063 84.0998 91.8125 83.6311 91.8125C83.1858 91.8125 82.8147 91.9063 82.5178 92.0938C82.2209 92.2813 81.9827 92.5469 81.803 92.8907C81.6311 93.2266 81.5061 93.6211 81.428 94.0743C81.3498 94.5196 81.3108 95 81.3108 95.5157V95.961C81.3108 96.4532 81.3772 96.9024 81.51 97.3086C81.6428 97.7149 81.8381 98.0625 82.0959 98.3516C82.3537 98.6407 82.6662 98.8672 83.0334 99.0313C83.4006 99.1954 83.8186 99.2774 84.2873 99.2774C84.8655 99.2774 85.4162 99.168 85.9397 98.9493C86.4631 98.7227 86.9162 98.3711 87.2991 97.8946L89.01 99.8516C88.7522 100.227 88.3889 100.59 87.9202 100.941C87.4592 101.285 86.9045 101.566 86.2561 101.785C85.6077 102.004 84.8733 102.113 84.053 102.113ZM97.8755 94.5079H93.4927L93.4692 91.9532H97.0903C97.7309 91.9532 98.2505 91.875 98.6489 91.7188C99.0552 91.5625 99.352 91.336 99.5395 91.0391C99.727 90.7344 99.8208 90.3594 99.8208 89.9141C99.8208 89.4063 99.727 88.9961 99.5395 88.6836C99.352 88.3711 99.0552 88.1446 98.6489 88.004C98.2505 87.8555 97.7348 87.7813 97.102 87.7813H94.8755V101.879H91.0552V84.8165H97.102C98.1255 84.8165 99.0395 84.9102 99.8442 85.0977C100.649 85.2852 101.332 85.5743 101.895 85.9649C102.465 86.3555 102.899 86.8438 103.196 87.4297C103.493 88.0157 103.641 88.7071 103.641 89.504C103.641 90.1993 103.485 90.8477 103.172 91.4493C102.868 92.0508 102.375 92.5391 101.696 92.9141C101.016 93.2891 100.106 93.4922 98.9653 93.5235L97.8755 94.5079ZM97.7231 101.879H92.52L93.9028 98.9258H97.7231C98.3091 98.9258 98.7856 98.8321 99.1528 98.6446C99.52 98.4571 99.7895 98.2032 99.9614 97.8829C100.133 97.5625 100.219 97.2032 100.219 96.8047C100.219 96.336 100.137 95.9297 99.9731 95.586C99.8169 95.2422 99.5669 94.9766 99.2231 94.7891C98.8872 94.6016 98.438 94.5079 97.8755 94.5079H94.4536L94.477 91.9532H98.6606L99.5512 92.961C100.637 92.9375 101.504 93.1133 102.153 93.4883C102.809 93.8555 103.282 94.3399 103.571 94.9415C103.86 95.543 104.004 96.1797 104.004 96.8516C104.004 97.961 103.766 98.8907 103.29 99.6407C102.813 100.383 102.106 100.941 101.168 101.316C100.239 101.691 99.0903 101.879 97.7231 101.879ZM105.522 95.668V95.4219C105.522 94.4922 105.655 93.6368 105.921 92.8555C106.186 92.0665 106.577 91.3829 107.092 90.8047C107.608 90.2266 108.241 89.7774 108.991 89.4571C109.741 89.129 110.6 88.9649 111.569 88.9649C112.553 88.9649 113.421 89.129 114.171 89.4571C114.928 89.7774 115.565 90.2266 116.081 90.8047C116.596 91.3829 116.987 92.0665 117.253 92.8555C117.518 93.6368 117.651 94.4922 117.651 95.4219V95.668C117.651 96.5899 117.518 97.4454 117.253 98.2344C116.987 99.0157 116.596 99.6993 116.081 100.285C115.565 100.863 114.932 101.313 114.182 101.633C113.432 101.953 112.569 102.113 111.592 102.113C110.624 102.113 109.76 101.953 109.003 101.633C108.245 101.313 107.608 100.863 107.092 100.285C106.577 99.6993 106.186 99.0157 105.921 98.2344C105.655 97.4454 105.522 96.5899 105.522 95.668ZM109.19 95.4219V95.668C109.19 96.168 109.229 96.6368 109.307 97.0743C109.393 97.5118 109.53 97.8946 109.717 98.2227C109.905 98.5508 110.151 98.8086 110.456 98.9961C110.768 99.1758 111.147 99.2657 111.592 99.2657C112.038 99.2657 112.413 99.1758 112.717 98.9961C113.022 98.8086 113.268 98.5508 113.456 98.2227C113.643 97.8946 113.776 97.5118 113.854 97.0743C113.94 96.6368 113.983 96.168 113.983 95.668V95.4219C113.983 94.9297 113.94 94.4688 113.854 94.0391C113.776 93.6016 113.643 93.2149 113.456 92.879C113.268 92.543 113.018 92.2813 112.706 92.0938C112.401 91.9063 112.022 91.8125 111.569 91.8125C111.132 91.8125 110.76 91.9063 110.456 92.0938C110.151 92.2813 109.905 92.543 109.717 92.879C109.53 93.2149 109.393 93.6016 109.307 94.0391C109.229 94.4688 109.19 94.9297 109.19 95.4219ZM118.806 95.668V95.4219C118.806 94.4922 118.938 93.6368 119.204 92.8555C119.47 92.0665 119.86 91.3829 120.376 90.8047C120.892 90.2266 121.524 89.7774 122.274 89.4571C123.024 89.129 123.884 88.9649 124.853 88.9649C125.837 88.9649 126.704 89.129 127.454 89.4571C128.212 89.7774 128.849 90.2266 129.364 90.8047C129.88 91.3829 130.27 92.0665 130.536 92.8555C130.802 93.6368 130.935 94.4922 130.935 95.4219V95.668C130.935 96.5899 130.802 97.4454 130.536 98.2344C130.27 99.0157 129.88 99.6993 129.364 100.285C128.849 100.863 128.216 101.313 127.466 101.633C126.716 101.953 125.853 102.113 124.876 102.113C123.907 102.113 123.044 101.953 122.286 101.633C121.528 101.313 120.892 100.863 120.376 100.285C119.86 99.6993 119.47 99.0157 119.204 98.2344C118.938 97.4454 118.806 96.5899 118.806 95.668ZM122.474 95.4219V95.668C122.474 96.168 122.513 96.6368 122.591 97.0743C122.677 97.5118 122.813 97.8946 123.001 98.2227C123.188 98.5508 123.435 98.8086 123.739 98.9961C124.052 99.1758 124.431 99.2657 124.876 99.2657C125.321 99.2657 125.696 99.1758 126.001 98.9961C126.306 98.8086 126.552 98.5508 126.739 98.2227C126.927 97.8946 127.06 97.5118 127.138 97.0743C127.224 96.6368 127.267 96.168 127.267 95.668V95.4219C127.267 94.9297 127.224 94.4688 127.138 94.0391C127.06 93.6016 126.927 93.2149 126.739 92.879C126.552 92.543 126.302 92.2813 125.989 92.0938C125.685 91.9063 125.306 91.8125 124.853 91.8125C124.415 91.8125 124.044 91.9063 123.739 92.0938C123.435 92.2813 123.188 92.543 123.001 92.879C122.813 93.2149 122.677 93.6016 122.591 94.0391C122.513 94.4688 122.474 94.9297 122.474 95.4219Z" fill="#9DF2E9"/>
</svg>
